# xmcd CD database file generated by Grip 3.3.1
# 
# Track frame offsets:
#       150
#       16735
#       32642
#       44238
#       54810
#       66847
#       78128
#       92933
#       102470
#       112455
#       125529
#       140570
#       153515
#       165877
#       178100
#       191878
#       205863
#       218758
#       230736
#       243657
#       256682
#       268198
#       279542
#       294876
#       307755
#       319487
# 
# Disc length: 4423 seconds
# 
# Revision: 5
# Processed by: cddbd v1.5.2PL0 Copyright (c) Steve Scherf et al.
# Submitted via: Grip 3.3.1
# 
DISCID=8111451a
DTITLE=Various Artist - Bluegrass Bonanza The Monroe Legacy 1936-1945
DYEAR=1936
DGENRE=Rock
TTITLE0=Monroe Brothers - New River Train
TTITLE1=Monroe Brothers - On The Banks Of The Ohio
TTITLE2=Charlie Monroe - Rosa Lee McFall
TTITLE3=Monroe Brothers - Just A Song Of Old Kentucky
TTITLE4=Monroe Brothers - Don't Forget Me
TTITLE5=Monroe Brothers - I'm Thinking Tonight Of The Old Folks
TTITLE6=Monroe Brothers - Weepin' Willow Tree
TTITLE7=Charlie Monroes Boys - No Home No Place To Pillow My Head
TTITLE8=Charlie Monroes Boys - The Great Speckled Bird
TTITLE9=Charlie Monroe - Bringin' In The Georgia Mill
TTITLE10=Charlie Monroes Boys - Once I Had A Darlin' Mother
TTITLE11=Charlie Monroe - Mother's Not Dead She's Only Sleeping
TTITLE12=Bill Monroe - Mule Skinner Blues
TTITLE13=Bill Monroe - No Letter In The Mail
TTITLE14=Bill Monroe - Six White Horses
TTITLE15=Bill Monroe - Dog House Blues
TTITLE16=Bill Monroe - I Wonder If You Feel The Way I Do
TTITLE17=Bill Monroe - Katy Hill
TTITLE18=Bill Monroe - Tennessee Blues
TTITLE19=Bill Monroe - Blue Yodel No. 7
TTITLE20=Bill Monroe - Orange Blossom Special
TTITLE21=Bill Monroe - Honky Tonk Swing
TTITLE22=Bill Monroe - In The Pines
TTITLE23=Bill Monroe - Back Up And Push
TTITLE24=Bill Monroe - Rocky Road Blues
TTITLE25=Bill Monroe - Footprints In The Snow
EXTD=ID3G:  17 YEAR: 1936
EXTT0=Monroe Brothers
EXTT1=Monroe Brothers
EXTT2=Charlie Monroe
EXTT3=Monroe Brothers
EXTT4=Monroe Brothers
EXTT5=Monroe Brothers
EXTT6=Monroe Brothers
EXTT7=Charlie Monroe's Boys
EXTT8=Charlie Monroe's Boys
EXTT9=Charlie Monroe
EXTT10=Charlie Monroe's Boys
EXTT11=Charlie Monroe's Boys
EXTT12=Bill Monroe
EXTT13=Bill Monroe
EXTT14=Bill Monroe
EXTT15=Bill Monroe
EXTT16=Bill Monroe
EXTT17=Bill Monroe
EXTT18=Bill Monroe
EXTT19=Bill Monroe
EXTT20=Bill Monroe
EXTT21=Bill Monroe
EXTT22=Bill Monroe
EXTT23=Bill Monroe
EXTT24=Bill Monroe
EXTT25=Bill Monroe
PLAYORDER=
